<svg xmlns="http://www.w3.org/2000/svg" xmlns:xlink="http://www.w3.org/1999/xlink" version="1.1" id="Layer_1" x="0px" y="0px" style="enable-background:new 0 0 765.35 566.93;" xml:space="preserve" viewBox="247.07 230.3 257.05 119.31">
<style type="text/css">
	.st0{fill:#F36D2B;}
	.st1{fill:url(#SVGID_1_);}
	.st2{fill:url(#SVGID_00000018956002132890238150000018093801877740872856_);}
	.st3{fill:url(#SVGID_00000154389368600722480400000016620040622910655161_);}
	.st4{fill:url(#SVGID_00000060028830967803917060000005863465538166013869_);}
</style>
<g>
	<path class="st0" d="M473.14,282.65h-0.4c0.06,0.17,0.13,0.33,0.19,0.5c0.4,0.29,0.72,0.69,0.92,1.19L473.14,282.65z"/>
	<path class="st0" d="M374.95,315.96c-4.66-2.42-8.26-5.95-10.81-10.61c-2.54-4.66-3.82-10.33-3.82-17v-8.08   c0-6.71,1.34-12.39,4.01-17.03c2.67-4.64,6.29-8.16,10.87-10.55c4.57-2.39,9.68-3.59,15.33-3.59c5.9,0,11.1,1.26,15.58,3.78   c4.49,2.52,8.02,6.11,10.58,10.77c2.57,4.66,3.85,10.2,3.85,16.61l0,0c0,4.32-3.5,7.82-7.82,7.82h-35.85v3.21   c0,4.45,1.3,8.1,3.91,10.97c2.61,2.86,6.11,4.3,10.52,4.3c2.31,0,4.36-0.33,6.16-0.99s3.26-1.57,4.39-2.73   c0.49-0.49,0.89-1.01,1.2-1.55c0.8-1.37,2.2-2.29,3.79-2.29h6.83c3.48,0,5.73,3.66,4.17,6.77l0,0c-1.2,2.37-2.94,4.61-5.23,6.7   c-2.29,2.1-5.19,3.81-8.69,5.13c-3.51,1.33-7.7,1.99-12.57,1.99C385.08,319.58,379.61,318.38,374.95,315.96z M404.19,277.83   c0-0.13,0-0.25,0-0.35c0-0.11,0-0.22,0-0.35c0-3.08-0.57-5.76-1.7-8.05c-1.13-2.29-2.72-4.07-4.75-5.36   c-2.03-1.28-4.42-1.92-7.15-1.92c-2.74,0-5.13,0.64-7.18,1.92c-2.05,1.28-3.66,3.07-4.81,5.36c-1.15,2.29-1.73,4.97-1.73,8.05   c0,0.13,0,0.25,0,0.35c0,0.11,0,0.22,0,0.35H404.19z"/>
	<path class="st0" d="M433.65,250.13h9.89c2.8,0,5.07,2.27,5.07,5.07v5.65h0.84c0.47-1.59,1.38-3.29,2.71-5.1   c1.33-1.81,3.2-3.37,5.58-4.68c2.39-1.31,5.39-1.97,9-1.97c1.12,0,2.13,0.04,3.03,0.13l0,0c1.32,0.13,2.32,1.23,2.32,2.56v10.58   c0,0.93-0.8,1.66-1.72,1.58l-1.12-0.1c-1.25-0.11-2.54-0.16-3.87-0.16c-3.7,0-6.77,0.67-9.2,2c-2.43,1.33-4.24,3.18-5.42,5.55   c-1.18,2.37-1.78,5.1-1.78,8.2v32.85c0,3.5-2.83,6.33-6.33,6.33h-9.15c-1.04,0-1.88-0.84-1.88-1.88v-64.58   C431.63,251.04,432.54,250.13,433.65,250.13z"/>
	<path class="st0" d="M504.12,325.19c0,5.53-0.98,10.1-2.93,13.71s-4.73,6.29-8.34,8.06c-3.6,1.77-7.99,2.65-13.15,2.65   c-1.26,0-2.67-0.06-4.26-0.17c-0.74-0.05-1.38-0.11-1.92-0.16c-0.81-0.07-1.43-0.76-1.43-1.57v-4.67c0-3.63,2.7-6.62,6.29-7.18   c2-0.31,4-1,5.18-2.43c1.48-1.8,2.2-4.63,2.2-8.44v-71.23c0-2.27,1.84-4.11,4.11-4.11h0c7.86,0,14.24,6.38,14.24,14.24V325.19z"/>
	<path class="st0" d="M349.23,232.81v83.16c0,1.39-1.01,2.5-2.24,2.5H334.6c-1.24,0-2.24-1.11-2.24-2.5v-63.01   c0-1.53-1.22-2.74-2.56-2.48c-10.41,1.92-19.48,13.59-25.37,20.93c3.56,11.58,5.84,26.97,3.83,46.29   c-0.05,0.51-0.44,0.92-0.92,0.92h-14.6c-0.55,0-0.97-0.55-0.9-1.15c0.99-7.65,2.91-56.19-24.46-66.59l0.14-0.04   c-0.35-0.1-0.69-0.18-1.04-0.25c-1.38-0.29-2.65,0.94-2.65,2.48l0.25,62.91c0,1.39-1.01,2.5-2.26,2.5h-12.49   c-1.25,0-2.26-1.11-2.26-2.5v-83.18c0-1.39,1.02-2.52,2.28-2.5c28.09,0.41,42.51,17.01,47.12,23.6c0.88,1.25,2.58,1.31,3.51,0.1   c4.98-6.45,20.33-22.98,46.98-23.68C348.21,230.27,349.23,231.43,349.23,232.81z"/>
</g>
</svg>